<svg width="48" height="48" viewBox="0 0 48 48" fill="none" xmlns="http://www.w3.org/2000/svg">
<g clip-path="url(#clip0_782_9224)">
<path d="M25.2008 6.04355C25.2008 5.36667 25.6583 4.80005 26.4008 4.80005C35.6783 4.80005 43.2008 12.3225 43.2008 21.6C43.2008 22.275 42.6308 22.8 41.9558 22.8H25.2008V6.04355ZM4.80078 25.2C4.80078 16.1025 11.5583 8.57555 20.2583 7.3688C21.0158 7.2743 21.6008 7.82705 21.6008 8.5208V26.4L33.3383 38.1375C33.8408 38.64 33.8033 39.465 33.2258 39.8775C30.2858 41.97 26.6858 43.2 22.8008 43.2C12.8633 43.2 4.80078 35.145 4.80078 25.2ZM44.2808 26.4C44.9708 26.4 45.5258 26.985 45.4358 27.675C44.8583 31.8675 42.8333 35.595 39.8933 38.3475C39.4433 38.7075 38.7383 38.7375 38.3033 38.3025L26.4008 26.4H44.2808Z" fill="url(#paint0_linear_782_9224)"/>
</g>
<defs>
<linearGradient id="paint0_linear_782_9224" x1="25.1231" y1="4.80005" x2="25.1231" y2="43.2" gradientUnits="userSpaceOnUse">
<stop stop-color="#BB99F5"/>
<stop offset="1" stop-color="#8071EA"/>
</linearGradient>
<clipPath id="clip0_782_9224">
<rect width="43.2" height="38.4" fill="white" transform="translate(2.40039 4.80005)"/>
</clipPath>
</defs>
</svg>
