<svg width="48" height="48" viewBox="0 0 48 48" fill="none" xmlns="http://www.w3.org/2000/svg">
<path d="M13.8 11.4C13.8 13.7175 11.9175 15.5999 9.6 15.5999C7.28025 15.5999 5.4 13.7175 5.4 11.4C5.4 9.0802 7.28025 7.19995 9.6 7.19995C11.9175 7.19995 13.8 9.0802 13.8 11.4ZM15.63 19.5224C13.4025 21.5024 12 24.3899 12 27.5999C12 30.1724 12.8325 32.5349 14.4 34.3874V35.9999C14.4 37.3274 13.3275 38.3999 12 38.3999H7.2C5.87475 38.3999 4.8 37.3274 4.8 35.9999V33.9899C1.962 32.6399 0 29.7524 0 26.3999C0 21.7574 3.7605 17.9999 8.4 17.9999H10.8C12.5325 17.9999 14.265 18.5624 15.63 19.5224ZM4.8 23.2274C4.053 24.0674 3.6 25.1849 3.6 26.3999C3.6 27.6149 4.053 28.7324 4.8 29.5724V23.2274ZM33.6 35.9999V34.3874C35.1 32.5349 36 30.1724 36 27.5999C36 24.3899 34.5975 21.5024 32.37 19.5224C33.735 18.5624 35.4 17.9999 37.2 17.9999H39.6C44.2425 17.9999 48 21.7574 48 26.3999C48 29.7524 46.035 32.6399 43.2 33.9899V35.9999C43.2 37.3274 42.1275 38.3999 40.8 38.3999H36C34.6725 38.3999 33.6 37.3274 33.6 35.9999ZM43.2 29.5724C43.8825 28.7324 44.4 27.6149 44.4 26.3999C44.4 25.1849 43.8825 24.0674 43.2 23.2274V29.5724ZM42.6 11.4C42.6 13.7175 40.7175 15.5999 38.4 15.5999C36.0825 15.5999 34.2 13.7175 34.2 11.4C34.2 9.0802 36.0825 7.19995 38.4 7.19995C40.7175 7.19995 42.6 9.0802 42.6 11.4ZM19.2 12C19.2 9.3487 21.3525 7.19995 24 7.19995C26.6475 7.19995 28.8 9.3487 28.8 12C28.8 14.6474 26.6475 16.7999 24 16.7999C21.3525 16.7999 19.2 14.6474 19.2 12ZM33.6 27.5999C33.6 30.9524 31.635 33.8399 28.8 35.1899V38.3999C28.8 39.7274 27.7275 40.7999 26.4 40.7999H21.6C20.2725 40.7999 19.2 39.7274 19.2 38.3999V35.1899C16.365 33.8399 14.4 30.9524 14.4 27.5999C14.4 22.9574 18.1575 19.1999 22.8 19.1999H25.2C29.8425 19.1999 33.6 22.9574 33.6 27.5999ZM19.2 30.7724V24.4275C18.45 25.2674 18 26.3849 18 27.5999C18 28.8149 18.45 29.9324 19.2 30.7724ZM28.8 24.4275V30.7724C29.4825 29.9249 30 28.8149 30 27.5999C30 26.3849 29.4825 25.2674 28.8 24.4275Z" fill="url(#paint0_linear_782_9217)"/>
<defs>
<linearGradient id="paint0_linear_782_9217" x1="24" y1="7.19995" x2="24" y2="40.7999" gradientUnits="userSpaceOnUse">
<stop stop-color="#9DCEFB"/>
<stop offset="1" stop-color="#4A9DF8"/>
</linearGradient>
</defs>
</svg>
