<svg width="48" height="48" viewBox="0 0 48 48" fill="none" xmlns="http://www.w3.org/2000/svg">
<path d="M44.7831 25.0617L36.87 21.897C36.5864 21.7824 36.0024 21.633 35.3403 21.897L27.4237 25.0617C26.6812 25.35 26.2 26.0461 26.2 26.7492C26.2 34.5961 30.9266 40.0242 35.3369 41.7891C35.9986 42.0527 36.5744 41.9033 36.8666 41.7891C40.39 40.4461 46 35.5664 46 26.7492C46 26.0461 45.5187 25.35 44.7831 25.0617ZM36.1 38.5125V25.2094L42.6656 27.8377C42.2806 33.9703 38.4788 37.3594 36.1 38.5125ZM17.4 24C22.2606 24 26.2 19.9704 26.2 15C26.2 10.0296 22.2606 6 17.4 6C12.5394 6 8.6 10.0296 8.6 15C8.6 19.9704 12.5394 24 17.4 24ZM24.0413 27.818C23.0306 27.5367 21.9788 27.375 20.8856 27.375H13.9144C7.33569 27.375 2 32.8383 2 39.5672C2 40.9102 3.067 42 4.38287 42H30.4144C30.6305 42 30.8246 41.9294 31.0236 41.8742C27.4169 39.0328 24.2819 34.1461 24.0413 27.818Z" fill="url(#paint0_linear_782_9210)"/>
<defs>
<linearGradient id="paint0_linear_782_9210" x1="24" y1="6" x2="24" y2="42" gradientUnits="userSpaceOnUse">
<stop stop-color="#F2BF53"/>
<stop offset="1" stop-color="#E67158"/>
</linearGradient>
</defs>
</svg>
