<svg width="48" height="48" viewBox="0 0 48 48" fill="none" xmlns="http://www.w3.org/2000/svg">
<g clip-path="url(#clip0_782_9231)">
<path d="M9.60039 27.6075C9.60039 26.6955 9.97322 25.8203 10.6234 25.2068L16.0331 20.1008C16.1569 19.9842 16.3161 19.9275 16.454 19.8324C15.6829 18.06 14.0254 16.8 12.0004 16.8H7.20039C4.54914 16.8 2.40039 18.9525 2.40039 21.6V28.8C2.40039 30.1253 3.47514 31.2 4.73289 31.2L4.80039 40.8C4.80039 42.1253 5.87514 43.2 7.20039 43.2H12.0004C13.3256 43.2 14.4004 42.1253 14.4004 40.8V33.5708L10.6234 30.006C9.90789 29.3925 9.60039 28.515 9.60039 27.6075ZM38.4004 14.4C41.0539 14.4 43.2004 12.2535 43.2004 9.60005C43.2004 6.94655 41.0539 4.80005 38.4004 4.80005C35.7469 4.80005 33.6004 6.94655 33.6004 9.60005C33.6004 12.2535 35.7454 14.4 38.4004 14.4ZM9.60039 14.4C12.2539 14.4 14.4004 12.2535 14.4004 9.60005C14.4004 6.94655 12.2554 4.80005 9.60039 4.80005C6.94539 4.80005 4.80039 6.94655 4.80039 9.60005C4.80039 12.2535 6.94764 14.4 9.60039 14.4ZM35.7304 26.9475L30.3229 21.8475C30.0611 21.6006 29.6774 21.5331 29.3471 21.6751C29.0179 21.8175 28.8004 22.14 28.8004 22.5V25.2H19.2004V22.5C19.2004 22.1404 18.9861 21.8151 18.6557 21.6728C18.3229 21.5325 17.9404 21.5325 17.6779 21.8475L12.2704 26.9475C11.91 27.2877 11.91 27.918 12.2704 28.2578L17.6794 33.363C17.9411 33.6099 18.3249 33.6774 18.6551 33.5353C18.9829 33.3975 19.2004 33.0675 19.2004 32.7075V30H28.8004V32.7105C28.8004 33.0702 29.0147 33.3957 29.345 33.5385C29.6755 33.6805 30.0593 33.613 30.3208 33.3661L35.7298 28.2609C36.0904 27.9225 36.0904 27.2925 35.7304 26.9475ZM40.8004 16.8H36.0004C34.0429 16.8 32.2519 18.0578 31.5469 19.8315C31.685 19.9269 31.8446 19.9836 31.9686 20.1006L37.3776 25.2051C38.0254 25.815 38.4004 26.6925 38.4004 27.6075C38.4005 28.5195 38.0277 29.3948 37.3774 30.0083L33.6004 33.57V40.8C33.6004 42.1253 34.6751 43.2 36.0004 43.2H40.8004C42.1256 43.2 43.2004 42.1253 43.2004 40.8V31.2C44.5256 31.2 45.6004 30.1253 45.6004 28.8V21.6C45.6004 18.9525 43.4479 16.8 40.8004 16.8Z" fill="url(#paint0_linear_782_9231)"/>
</g>
<defs>
<linearGradient id="paint0_linear_782_9231" x1="24.0004" y1="4.80005" x2="24.0004" y2="43.2" gradientUnits="userSpaceOnUse">
<stop stop-color="#97F2B5"/>
<stop offset="1" stop-color="#62C67A"/>
</linearGradient>
<clipPath id="clip0_782_9231">
<rect width="43.2" height="38.4" fill="white" transform="translate(2.40039 4.80005)"/>
</clipPath>
</defs>
</svg>
